<svg height="512pt" viewBox="0 -18 512 512" width="512pt" xmlns="http://www.w3.org/2000/svg"><path d="m508.273438 69.351562-55.613282-64.105468c-2.890625-3.332032-7.085937-5.246094-11.5-5.246094-4.410156 0-8.605468 1.914062-11.496094 5.246094l-55.621093 64.105468c-2.402344 2.769532-3.726563 6.3125-3.726563 9.976563v62.277344h-43.476562v-62.277344c0-3.664063-1.320313-7.207031-3.722656-9.976563l-55.613282-64.105468c-2.894531-3.332032-7.085937-5.246094-11.5-5.246094-4.414062 0-8.609375 1.914062-11.5 5.246094l-55.621094 64.105468c-2.402343 2.769532-3.722656 6.3125-3.722656 9.976563v62.277344h-43.476562v-62.277344c0-3.664063-1.324219-7.207031-3.722656-9.976563l-55.617188-64.105468c-2.890625-3.332032-7.085938-5.246094-11.5-5.246094-4.410156 0-8.605469 1.914062-11.496094 5.246094l-55.621094 64.105468c-2.402343 2.769532-3.726562 6.3125-3.726562 9.976563v380.816406c0 8.410157 6.816406 15.226563 15.222656 15.226563h111.234375c8.410157 0 15.226563-6.816406 15.226563-15.226563v-68.519531h43.476562v68.519531c0 8.410157 6.816406 15.226563 15.222656 15.226563h111.234376c8.40625 0 15.222656-6.816406 15.222656-15.226563v-68.519531h43.476562v68.519531c0 8.410157 6.816406 15.226563 15.226563 15.226563h111.234375c8.40625 0 15.222656-6.816406 15.222656-15.226563v-380.816406c0-3.664063-1.324219-7.207031-3.726562-9.976563zm-107.507813 15.660157 40.394531-46.554688 40.390625 46.554688v359.910156h-80.785156zm-185.160156 359.910156v-359.910156l40.398437-46.554688 40.386719 46.554688v359.910156zm-185.15625 0v-359.910156l40.394531-46.554688 40.390625 46.554688v359.910156zm154.710937-202.15625v47.699219h-43.476562v-47.699219zm0-30.449219h-43.476562v-40.261718h43.476562zm-43.476562 108.597656h43.476562v40.261719h-43.476562zm228.632812-78.148437v47.699219h-43.476562v-47.699219zm0-30.449219h-43.476562v-40.261718h43.476562zm-43.476562 108.597656h43.476562v40.261719h-43.476562zm0 0"/><path d="m88.875 192.183594c-.371094-8.246094-6.6875-15.222656-15.222656-15.222656-7.964844 0-15.59375 7-15.226563 15.222656.371094 8.25 6.691407 15.226562 15.226563 15.226562 7.960937 0 15.589844-7.003906 15.222656-15.226562zm0 0"/><path d="m88.875 341.042969c-.371094-8.246094-6.6875-15.222657-15.222656-15.222657-7.964844 0-15.59375 7.003907-15.226563 15.222657.371094 8.25 6.691407 15.226562 15.226563 15.226562 7.960937 0 15.589844-7.003906 15.222656-15.226562zm0 0"/><path d="m271.226562 192.183594c-.367187-8.246094-6.6875-15.222656-15.222656-15.222656-7.964844 0-15.59375 7-15.226562 15.222656.371094 8.25 6.691406 15.226562 15.226562 15.226562 7.960938 0 15.59375-7.003906 15.222656-15.226562zm0 0"/><path d="m271.226562 341.042969c-.367187-8.246094-6.6875-15.222657-15.222656-15.222657-7.964844 0-15.59375 7.003907-15.226562 15.222657.371094 8.25 6.691406 15.226562 15.226562 15.226562 7.960938 0 15.59375-7.003906 15.222656-15.226562zm0 0"/><path d="m456.382812 192.183594c-.371093-8.246094-6.691406-15.222656-15.222656-15.222656-7.964844 0-15.59375 7-15.226562 15.222656.371094 8.25 6.691406 15.226562 15.226562 15.226562 7.960938 0 15.589844-7.003906 15.222656-15.226562zm0 0"/><path d="m456.382812 341.042969c-.371093-8.246094-6.691406-15.222657-15.222656-15.222657-7.964844 0-15.59375 7.003907-15.226562 15.222657.371094 8.25 6.691406 15.226562 15.226562 15.226562 7.960938 0 15.589844-7.003906 15.222656-15.226562zm0 0"/></svg>