<?xml version="1.0" encoding="iso-8859-1"?>
<!-- Generator: Adobe Illustrator 18.0.0, SVG Export Plug-In . SVG Version: 6.00 Build 0)  -->
<!DOCTYPE svg PUBLIC "-//W3C//DTD SVG 1.1//EN" "http://www.w3.org/Graphics/SVG/1.1/DTD/svg11.dtd">
<svg version="1.1" id="Capa_1" xmlns="http://www.w3.org/2000/svg" xmlns:xlink="http://www.w3.org/1999/xlink" x="0px" y="0px"
	 viewBox="0 0 488.135 488.135" style="enable-background:new 0 0 488.135 488.135;" xml:space="preserve">
<g id="XMLID_249_">
	<path id="XMLID_257_" d="M40.24,161.255c-3.661,0.127-7.322,0.698-10.777,2.178l-18.535,7.9c-4.774,2.036-8.43,6.039-10.058,10.989
		c-1.591,4.941-0.986,10.333,1.688,14.789l12.09,20.184L40.24,161.255z"/>
	<path id="XMLID_256_" d="M486.818,56.396c-9.179-21.552-65.335-18.25-86.878-9.068l-91.495,39.016L187.692,44
		c-1.386,3.089-3.007,6.024-4.999,8.714c2.312,6.387,3.788,13.183,3.788,20.36c0,14.15-5.107,27.01-13.319,37.296
		c-0.218,0.284-0.46,0.558-0.696,0.835h3.801h4.375c8.483,0,15.357,6.874,15.357,15.347v0.087c0.841,1.344,1.731,2.633,2.402,4.112
		l63.962,140.111c8.405,18.427,0.29,40.168-18.136,48.579c-8.562,3.898-15.915,3.945-23.582,2.125l9.991,41.56
		c1.132,4.702,4.267,8.665,8.593,10.844c4.327,2.163,9.385,2.333,13.845,0.43l33.476-14.281c4.532-1.933,7.958-5.806,9.342-10.547
		l54.716-188.96l82.618-35.23C454.789,116.185,496.016,77.941,486.818,56.396z"/>
	<path id="XMLID_255_" d="M236.973,303.536c9.64-4.399,13.869-15.775,9.482-25.409l-57.282-125.503
		c-2.487,1.694-5.301,2.919-8.532,2.919h-27.273c-8.479,0-15.352-6.874-15.352-15.349v-8.115c-3.806,0.757-7.715,1.187-11.727,1.187
		c-4.024,0-7.94-0.43-11.746-1.187v8.115c0,8.475-6.875,15.349-15.335,15.349H71.901c-3.213,0-6.045-1.225-8.496-2.919
		L6.106,278.127c-4.406,9.634-0.14,21.01,9.488,25.409c9.561,4.378,20.986,0.208,25.41-9.482l30.897-67.711
		c0,0-0.03,57.457-0.03,238.747c0,12.714,10.293,23.017,23.007,23.017c12.714,0,23.013-10.303,23.013-23.017V327.922h16.787v137.167
		c0,12.714,10.293,23.017,23.025,23.017c12.695,0,23.007-10.303,23.007-23.017c0-127.709-0.066-197.528-0.066-238.747l30.916,67.711
		C215.982,303.744,227.394,307.914,236.973,303.536z"/>
	<rect id="XMLID_254_" x="71.901" y="126.551" width="27.309" height="13.643"/>
	<rect id="XMLID_253_" x="153.369" y="126.551" width="27.273" height="13.643"/>
	<path id="XMLID_252_" d="M145.206,71.751h-37.851c-9.228,0-17.79-2.737-25.046-7.367c-0.538,2.816-0.877,5.712-0.877,8.69
		c0,24.772,20.066,44.845,44.858,44.845c24.756,0,44.839-20.072,44.839-44.845c0-2.979-0.32-5.883-0.859-8.696
		C163.014,69.013,154.434,71.751,145.206,71.751z"/>
	<path id="XMLID_251_" d="M78.043,35.885c4.423,11.951,15.818,20.519,29.313,20.519h37.851c13.482,0,24.888-8.568,29.312-20.519
		H78.043z"/>
	<path id="XMLID_250_" d="M72.729,20.548H179.85l5.966-8.221c1.7-2.354,1.955-5.474,0.635-8.066
		c-1.319-2.602-3.993-4.232-6.892-4.232H73.014c-2.922,0-5.585,1.63-6.904,4.232c-1.337,2.593-1.083,5.713,0.636,8.066
		L72.729,20.548z"/>
</g>
<g>
</g>
<g>
</g>
<g>
</g>
<g>
</g>
<g>
</g>
<g>
</g>
<g>
</g>
<g>
</g>
<g>
</g>
<g>
</g>
<g>
</g>
<g>
</g>
<g>
</g>
<g>
</g>
<g>
</g>
</svg>
